<svg width="54" height="31" viewBox="0 0 54 31" fill="none" xmlns="http://www.w3.org/2000/svg">
<path d="M2.13103 14.8618C1.74703 14.7498 1.47903 14.6378 1.32703 14.5258C1.18303 14.4138 1.11103 14.2738 1.11103 14.1058C1.11103 13.9778 1.14703 13.7978 1.21903 13.5658C1.29103 13.3338 1.39503 13.0618 1.53103 12.7498C1.67503 12.4298 1.84303 12.0778 2.03503 11.6938C2.23503 11.3098 2.45903 10.8978 2.70703 10.4578C2.49903 10.4498 2.31103 10.4458 2.14303 10.4458C1.98303 10.4378 1.85103 10.4338 1.74703 10.4338C1.79503 10.3138 1.93103 10.2098 2.15503 10.1218C2.37903 10.0338 2.67503 9.9578 3.04303 9.8938C3.35503 9.3738 3.68703 8.8778 4.03903 8.4058C4.39903 7.9338 4.75903 7.5018 5.11903 7.1098C5.47903 6.7098 5.83903 6.3618 6.19903 6.0658C6.55903 5.7618 6.90303 5.5218 7.23103 5.3458C7.23903 5.2898 7.24303 5.2418 7.24303 5.2018C7.25103 5.1618 7.25503 5.1338 7.25503 5.1178C7.36703 5.1178 7.51503 5.1458 7.69903 5.2018C7.89103 5.2578 8.07503 5.3258 8.25103 5.4058C8.43503 5.4858 8.59503 5.5698 8.73103 5.6578C8.87503 5.7378 8.95503 5.8058 8.97103 5.8618C8.70703 6.3258 8.44703 7.0218 8.19103 7.9498C7.93503 8.8698 7.72303 9.9738 7.55503 11.2618C7.51503 11.5818 7.47903 11.9458 7.44703 12.3538C7.42303 12.7618 7.41103 13.2178 7.41103 13.7218C7.41103 13.8978 7.41103 14.0778 7.41103 14.2618C7.41103 14.4458 7.41903 14.6378 7.43503 14.8378C7.41903 14.8458 7.40303 14.8498 7.38703 14.8498C7.37103 14.8498 7.33903 14.8498 7.29103 14.8498C7.17903 14.8498 7.04703 14.8298 6.89503 14.7898C6.75103 14.7578 6.60703 14.7138 6.46303 14.6578C6.32703 14.6098 6.20703 14.5538 6.10303 14.4898C6.00703 14.4258 5.94703 14.3698 5.92303 14.3218C5.91503 14.2178 5.91103 14.1138 5.91103 14.0098C5.91103 13.9138 5.91103 13.8098 5.91103 13.6978C5.91103 13.2018 5.92703 12.6978 5.95903 12.1858C5.99903 11.6738 6.06303 11.1458 6.15103 10.6018C6.03903 10.5938 5.89103 10.5858 5.70703 10.5778C5.52303 10.5618 5.31503 10.5498 5.08303 10.5418C4.85903 10.5338 4.61503 10.5258 4.35103 10.5178C4.09503 10.5018 3.84303 10.4898 3.59503 10.4818C3.40303 10.8418 3.22303 11.2018 3.05503 11.5618C2.88703 11.9138 2.74303 12.2698 2.62303 12.6298C2.48703 13.0138 2.37503 13.3978 2.28703 13.7818C2.20703 14.1658 2.15503 14.5258 2.13103 14.8618ZM6.76303 7.6498C6.79503 7.5378 6.83103 7.3858 6.87103 7.1938C6.91903 6.9938 6.96303 6.7858 7.00303 6.5698C6.80303 6.6418 6.57903 6.7738 6.33103 6.9658C6.09103 7.1578 5.83903 7.3978 5.57503 7.6858C5.31903 7.9658 5.05503 8.2858 4.78303 8.6458C4.51903 8.9978 4.26303 9.3738 4.01503 9.7738C4.68703 9.7178 5.45103 9.6818 6.30703 9.6658C6.37103 9.3298 6.43903 8.9978 6.51103 8.6698C6.59103 8.3338 6.67503 7.9938 6.76303 7.6498ZM10.8581 8.1298C11.0661 8.1938 11.2621 8.3378 11.4461 8.5618C11.6301 8.7778 11.7661 9.0178 11.8541 9.2818C11.7661 9.4978 11.6301 9.7578 11.4461 10.0618C11.2621 10.3658 11.0781 10.6778 10.8941 10.9978C10.7101 11.3098 10.5421 11.6098 10.3901 11.8978C10.2461 12.1778 10.1621 12.4098 10.1381 12.5938C10.2661 12.4578 10.4061 12.3018 10.5581 12.1258C10.7181 11.9418 10.8701 11.7618 11.0141 11.5858C11.1661 11.4018 11.3061 11.2378 11.4341 11.0938C11.5621 10.9418 11.6621 10.8298 11.7341 10.7578C11.8861 10.5978 12.0661 10.4138 12.2741 10.2058C12.4821 9.9898 12.6981 9.7898 12.9221 9.6058C13.1541 9.4138 13.3861 9.2538 13.6181 9.1258C13.8501 8.9898 14.0621 8.9218 14.2541 8.9218C14.4621 8.9218 14.6341 8.9938 14.7701 9.1378C14.9141 9.2738 15.0261 9.4178 15.1061 9.5698C15.1061 9.5858 15.0741 9.6098 15.0101 9.6418C14.9541 9.6658 14.8701 9.7418 14.7581 9.8698C14.6461 10.0138 14.5181 10.2138 14.3741 10.4698C14.2381 10.7178 14.1021 10.9898 13.9661 11.2858C13.8381 11.5738 13.7301 11.8698 13.6421 12.1738C13.5541 12.4778 13.5101 12.7538 13.5101 13.0018C13.5101 13.2018 13.5341 13.3298 13.5821 13.3858C13.6381 13.4418 13.7141 13.4698 13.8101 13.4698C13.8981 13.4698 13.9901 13.4498 14.0861 13.4098C14.1821 13.3698 14.2581 13.3498 14.3141 13.3498C14.3461 13.3658 14.3701 13.4018 14.3861 13.4578C14.4101 13.5058 14.4221 13.5498 14.4221 13.5898C14.3581 13.6458 14.2821 13.7018 14.1941 13.7578C14.1061 13.8138 14.0141 13.8658 13.9181 13.9138C13.8221 13.9618 13.7261 14.0018 13.6301 14.0338C13.5421 14.0658 13.4621 14.0818 13.3901 14.0818C13.1581 14.0818 12.9661 14.0458 12.8141 13.9738C12.6701 13.9098 12.5541 13.8218 12.4661 13.7098C12.3861 13.5978 12.3301 13.4658 12.2981 13.3138C12.2661 13.1538 12.2501 12.9858 12.2501 12.8098C12.2501 12.7138 12.2581 12.6058 12.2741 12.4858C12.2901 12.3658 12.3221 12.2258 12.3701 12.0658C12.4181 11.8978 12.4861 11.7018 12.5741 11.4778C12.6621 11.2458 12.7741 10.9698 12.9101 10.6498C12.8941 10.6498 12.7861 10.7058 12.5861 10.8178C12.3861 10.9298 12.1701 11.1018 11.9381 11.3338C11.5621 11.6938 11.2221 12.0498 10.9181 12.4018C10.6221 12.7538 10.3181 13.1458 10.0061 13.5778C9.83012 13.8258 9.67412 14.0338 9.53812 14.2018C9.41012 14.3778 9.29812 14.4938 9.20212 14.5498C9.03412 14.4538 8.91012 14.3178 8.83012 14.1418C8.75012 13.9738 8.69012 13.7978 8.65012 13.6138C8.65012 13.4618 8.67012 13.2698 8.71012 13.0378C8.75812 12.8058 8.81812 12.5498 8.89012 12.2698C8.97012 11.9818 9.06612 11.6818 9.17812 11.3698C9.29012 11.0578 9.41412 10.7458 9.55012 10.4338C9.85412 9.7298 10.1301 9.1778 10.3781 8.7778C10.6341 8.3778 10.7941 8.1618 10.8581 8.1298ZM12.9706 17.5258C12.9706 17.4778 12.9866 17.4338 13.0186 17.3938C13.0506 17.3538 13.0866 17.3138 13.1266 17.2738C13.2226 17.3618 13.3066 17.4298 13.3786 17.4778C13.4426 17.5258 13.5066 17.5658 13.5706 17.5978C13.6266 17.6298 13.6866 17.6498 13.7506 17.6578C13.8146 17.6658 13.8906 17.6698 13.9786 17.6698C14.3946 17.6698 14.7906 17.5578 15.1666 17.3338C15.5426 17.1178 15.8946 16.8018 16.2226 16.3858C16.5586 15.9698 16.8626 15.4618 17.1346 14.8618C17.4066 14.2618 17.6466 13.5818 17.8546 12.8218C17.7586 12.9178 17.6386 13.0258 17.4946 13.1458C17.3586 13.2578 17.2146 13.3658 17.0626 13.4698C16.9106 13.5738 16.7586 13.6698 16.6066 13.7578C16.4626 13.8458 16.3386 13.9098 16.2346 13.9498C16.0986 13.9258 15.9706 13.8698 15.8506 13.7818C15.7386 13.6858 15.6386 13.5698 15.5506 13.4338C15.4626 13.2978 15.3946 13.1458 15.3466 12.9778C15.2986 12.8018 15.2746 12.6178 15.2746 12.4258C15.2746 12.1138 15.3306 11.7938 15.4426 11.4658C15.5626 11.1378 15.7186 10.8178 15.9106 10.5058C16.1026 10.1858 16.3266 9.8858 16.5826 9.6058C16.8466 9.3258 17.1226 9.0818 17.4106 8.8738C17.7066 8.6658 18.0026 8.5018 18.2986 8.3818C18.6026 8.2538 18.8986 8.1898 19.1866 8.1898C19.4666 8.1898 19.6746 8.2498 19.8106 8.3698C19.9546 8.4818 20.0586 8.6778 20.1226 8.9578C20.0346 8.9098 19.9226 8.8858 19.7866 8.8858C19.5946 8.8858 19.3706 8.9618 19.1146 9.1138C18.8666 9.2658 18.6106 9.4658 18.3466 9.7138C18.0906 9.9538 17.8346 10.2338 17.5786 10.5538C17.3226 10.8658 17.0946 11.1858 16.8946 11.5138C16.7026 11.8418 16.5426 12.1618 16.4146 12.4738C16.2946 12.7858 16.2346 13.0658 16.2346 13.3138C16.2346 13.3698 16.2386 13.4058 16.2466 13.4218C16.2546 13.4298 16.2666 13.4338 16.2826 13.4338C16.3546 13.4338 16.4506 13.3938 16.5706 13.3138C16.6986 13.2338 16.8386 13.1338 16.9906 13.0138C17.1506 12.8858 17.3146 12.7418 17.4826 12.5818C17.6506 12.4138 17.8106 12.2458 17.9626 12.0778C18.3066 11.6938 18.6186 11.2658 18.8986 10.7938C19.1866 10.3138 19.4146 9.8498 19.5826 9.4018C19.7986 9.4178 19.9906 9.4538 20.1586 9.5098C20.3266 9.5658 20.4426 9.6258 20.5066 9.6898C20.2346 10.3138 20.0146 10.8378 19.8466 11.2618C19.6866 11.6858 19.5466 12.0618 19.4266 12.3898C19.2106 12.9658 19.0066 13.4898 18.8146 13.9618C18.6306 14.4418 18.4386 14.8818 18.2386 15.2818C18.0466 15.6898 17.8346 16.0658 17.6026 16.4098C17.3786 16.7618 17.1226 17.0978 16.8346 17.4178C16.6986 17.5698 16.5426 17.7018 16.3666 17.8138C16.1986 17.9338 16.0226 18.0338 15.8386 18.1138C15.6626 18.1938 15.4866 18.2538 15.3106 18.2938C15.1426 18.3338 14.9866 18.3538 14.8426 18.3538C14.6506 18.3538 14.4546 18.3298 14.2546 18.2818C14.0546 18.2418 13.8706 18.1818 13.7026 18.1018C13.5266 18.0298 13.3746 17.9418 13.2466 17.8378C13.1186 17.7418 13.0266 17.6378 12.9706 17.5258ZM25.0929 8.9818C25.0609 9.4778 24.9729 9.9058 24.8289 10.2658C24.6849 10.6178 24.4769 10.9298 24.2049 11.2018C23.9409 11.4658 23.6169 11.7058 23.2329 11.9218C22.8489 12.1378 22.4009 12.3458 21.8889 12.5458C21.8889 12.5938 21.8849 12.6458 21.8769 12.7018C21.8769 12.7498 21.8769 12.8018 21.8769 12.8578C21.8769 12.9618 21.8849 13.0698 21.9009 13.1818C21.9169 13.2938 21.9449 13.3978 21.9849 13.4938C22.0249 13.5898 22.0809 13.6698 22.1529 13.7338C22.2249 13.7898 22.3169 13.8178 22.4289 13.8178C22.6449 13.8178 22.8569 13.7698 23.0649 13.6738C23.2729 13.5778 23.4689 13.4618 23.6529 13.3258C23.8449 13.1818 24.0209 13.0298 24.1809 12.8698C24.3489 12.7018 24.4969 12.5498 24.6249 12.4138C24.7049 12.4858 24.7729 12.5538 24.8289 12.6178C24.4689 13.0978 24.0729 13.4978 23.6409 13.8178C23.2169 14.1298 22.8129 14.3298 22.4289 14.4178C21.8769 14.3538 21.4449 14.1538 21.1329 13.8178C20.8289 13.4738 20.6769 13.0618 20.6769 12.5818C20.6769 12.2538 20.7209 11.9218 20.8089 11.5858C20.9049 11.2418 21.0329 10.9138 21.1929 10.6018C21.3609 10.2818 21.5529 9.9818 21.7689 9.7018C21.9929 9.4218 22.2289 9.1778 22.4769 8.9698C22.7329 8.7618 22.9929 8.5978 23.2569 8.4778C23.5289 8.3578 23.7969 8.2978 24.0609 8.2978C24.4289 8.3458 24.7729 8.5738 25.0929 8.9818ZM24.2649 9.3778C24.0489 9.4098 23.8249 9.4978 23.5929 9.6418C23.3609 9.7858 23.1409 9.9778 22.9329 10.2178C22.7329 10.4578 22.5489 10.7378 22.3809 11.0578C22.2129 11.3778 22.0809 11.7218 21.9849 12.0898C22.6249 11.7698 23.1569 11.3778 23.5809 10.9138C24.0049 10.4418 24.2329 9.9298 24.2649 9.3778ZM25.6365 13.1818C25.6365 12.8298 25.7205 12.3378 25.8885 11.7058C26.0565 11.0658 26.2925 10.3218 26.5965 9.4738C27.0925 8.1218 27.5565 6.9978 27.9885 6.1018C28.4285 5.1978 28.8565 4.4938 29.2725 3.9898C29.3685 4.0058 29.4845 4.0458 29.6205 4.1098C29.7645 4.1738 29.9045 4.2458 30.0405 4.3258C30.1765 4.3978 30.2965 4.4738 30.4005 4.5538C30.5125 4.6338 30.5845 4.6978 30.6165 4.7458C29.9925 5.4818 29.4445 6.2738 28.9725 7.1218C28.5005 7.9698 28.0685 8.9418 27.6765 10.0378C27.3405 10.9818 27.0845 11.8338 26.9085 12.5938C26.7325 13.3458 26.6445 13.9738 26.6445 14.4778C26.6445 14.6138 26.6445 14.6978 26.6445 14.7298C26.6445 14.7618 26.6485 14.7938 26.6565 14.8258C26.5445 14.8098 26.4485 14.7818 26.3685 14.7418C26.2885 14.7018 26.2365 14.6538 26.2125 14.5978C26.1965 14.5578 26.1525 14.4978 26.0805 14.4178C26.0085 14.3458 25.9445 14.2898 25.8885 14.2498C25.8165 14.2018 25.7565 14.0778 25.7085 13.8778C25.6605 13.6698 25.6365 13.4378 25.6365 13.1818ZM28.4964 13.1458C28.4964 13.0738 28.5004 12.9858 28.5084 12.8818C28.5244 12.7698 28.5484 12.6258 28.5804 12.4498C28.6124 12.2658 28.6524 12.0458 28.7004 11.7898C28.7564 11.5338 28.8244 11.2258 28.9044 10.8658C28.9204 10.7858 28.9564 10.6578 29.0124 10.4818C29.0684 10.3058 29.1404 10.1218 29.2284 9.9298C29.3244 9.7298 29.4364 9.5378 29.5644 9.3538C29.7004 9.1698 29.8604 9.0338 30.0444 8.9458C30.1804 8.9778 30.3604 9.0618 30.5844 9.1978C30.8084 9.3258 31.0004 9.5058 31.1604 9.7378C30.9764 9.9458 30.8204 10.1538 30.6924 10.3618C30.5724 10.5698 30.4604 10.7858 30.3564 11.0098C30.2604 11.2338 30.1684 11.4658 30.0804 11.7058C30.0004 11.9458 29.9084 12.1978 29.8044 12.4618C29.7164 12.6858 29.6364 12.9178 29.5644 13.1578C29.4924 13.3898 29.4524 13.5938 29.4444 13.7698C29.4444 13.9138 29.4404 14.0138 29.4324 14.0698C29.4324 14.1338 29.4124 14.1658 29.3724 14.1658C29.3404 14.1658 29.2764 14.1458 29.1804 14.1058C29.0844 14.0658 28.9844 14.0058 28.8804 13.9258C28.7844 13.8378 28.6964 13.7298 28.6164 13.6018C28.5364 13.4738 28.4964 13.3218 28.4964 13.1458ZM30.7884 7.9378C30.7884 7.8898 30.8004 7.8178 30.8244 7.7218C30.7844 7.6818 30.7484 7.6218 30.7164 7.5418C30.6924 7.4618 30.6804 7.3898 30.6804 7.3258C30.6804 7.2538 30.6884 7.1578 30.7044 7.0378C30.7284 6.9098 30.7564 6.7738 30.7884 6.6298C30.8204 6.4858 30.8604 6.3378 30.9084 6.1858C30.9564 6.0258 31.0044 5.8818 31.0524 5.7538C31.1484 5.7538 31.2644 5.7818 31.4004 5.8378C31.5444 5.8858 31.6884 5.9538 31.8324 6.0418C31.9764 6.1218 32.1084 6.2138 32.2284 6.3178C32.3484 6.4138 32.4404 6.5058 32.5044 6.5938C32.4164 6.6818 32.3004 6.8058 32.1564 6.9658C32.0124 7.1178 31.8724 7.2818 31.7364 7.4578C31.6004 7.6258 31.4764 7.7858 31.3644 7.9378C31.2524 8.0898 31.1804 8.1978 31.1484 8.2618C31.0524 8.2458 30.9684 8.2058 30.8964 8.1418C30.8244 8.0698 30.7884 8.0018 30.7884 7.9378ZM33.2644 8.1298C33.4724 8.1938 33.6684 8.3378 33.8524 8.5618C34.0364 8.7778 34.1724 9.0178 34.2604 9.2818C34.1724 9.4978 34.0364 9.7578 33.8524 10.0618C33.6684 10.3658 33.4844 10.6778 33.3004 10.9978C33.1164 11.3098 32.9484 11.6098 32.7964 11.8978C32.6524 12.1778 32.5684 12.4098 32.5444 12.5938C32.6724 12.4578 32.8124 12.3018 32.9644 12.1258C33.1244 11.9418 33.2764 11.7618 33.4204 11.5858C33.5724 11.4018 33.7124 11.2378 33.8404 11.0938C33.9684 10.9418 34.0684 10.8298 34.1404 10.7578C34.2924 10.5978 34.4724 10.4138 34.6804 10.2058C34.8884 9.9898 35.1044 9.7898 35.3284 9.6058C35.5604 9.4138 35.7924 9.2538 36.0244 9.1258C36.2564 8.9898 36.4684 8.9218 36.6604 8.9218C36.8684 8.9218 37.0404 8.9938 37.1764 9.1378C37.3204 9.2738 37.4324 9.4178 37.5124 9.5698C37.5124 9.5858 37.4804 9.6098 37.4164 9.6418C37.3604 9.6658 37.2764 9.7418 37.1644 9.8698C37.0524 10.0138 36.9244 10.2138 36.7804 10.4698C36.6444 10.7178 36.5084 10.9898 36.3724 11.2858C36.2444 11.5738 36.1364 11.8698 36.0484 12.1738C35.9604 12.4778 35.9164 12.7538 35.9164 13.0018C35.9164 13.2018 35.9404 13.3298 35.9884 13.3858C36.0444 13.4418 36.1204 13.4698 36.2164 13.4698C36.3044 13.4698 36.3964 13.4498 36.4924 13.4098C36.5884 13.3698 36.6644 13.3498 36.7204 13.3498C36.7524 13.3658 36.7764 13.4018 36.7924 13.4578C36.8164 13.5058 36.8284 13.5498 36.8284 13.5898C36.7644 13.6458 36.6884 13.7018 36.6004 13.7578C36.5124 13.8138 36.4204 13.8658 36.3244 13.9138C36.2284 13.9618 36.1324 14.0018 36.0364 14.0338C35.9484 14.0658 35.8684 14.0818 35.7964 14.0818C35.5644 14.0818 35.3724 14.0458 35.2204 13.9738C35.0764 13.9098 34.9604 13.8218 34.8724 13.7098C34.7924 13.5978 34.7364 13.4658 34.7044 13.3138C34.6724 13.1538 34.6564 12.9858 34.6564 12.8098C34.6564 12.7138 34.6644 12.6058 34.6804 12.4858C34.6964 12.3658 34.7284 12.2258 34.7764 12.0658C34.8244 11.8978 34.8924 11.7018 34.9804 11.4778C35.0684 11.2458 35.1804 10.9698 35.3164 10.6498C35.3004 10.6498 35.1924 10.7058 34.9924 10.8178C34.7924 10.9298 34.5764 11.1018 34.3444 11.3338C33.9684 11.6938 33.6284 12.0498 33.3244 12.4018C33.0284 12.7538 32.7244 13.1458 32.4124 13.5778C32.2364 13.8258 32.0804 14.0338 31.9444 14.2018C31.8164 14.3778 31.7044 14.4938 31.6084 14.5498C31.4404 14.4538 31.3164 14.3178 31.2364 14.1418C31.1564 13.9738 31.0964 13.7978 31.0564 13.6138C31.0564 13.4618 31.0764 13.2698 31.1164 13.0378C31.1644 12.8058 31.2244 12.5498 31.2964 12.2698C31.3764 11.9818 31.4724 11.6818 31.5844 11.3698C31.6964 11.0578 31.8204 10.7458 31.9564 10.4338C32.2604 9.7298 32.5364 9.1778 32.7844 8.7778C33.0404 8.3778 33.2004 8.1618 33.2644 8.1298ZM42.0968 8.9818C42.0648 9.4778 41.9768 9.9058 41.8328 10.2658C41.6888 10.6178 41.4808 10.9298 41.2088 11.2018C40.9448 11.4658 40.6208 11.7058 40.2368 11.9218C39.8528 12.1378 39.4048 12.3458 38.8928 12.5458C38.8928 12.5938 38.8888 12.6458 38.8808 12.7018C38.8808 12.7498 38.8808 12.8018 38.8808 12.8578C38.8808 12.9618 38.8888 13.0698 38.9048 13.1818C38.9208 13.2938 38.9488 13.3978 38.9888 13.4938C39.0288 13.5898 39.0848 13.6698 39.1568 13.7338C39.2288 13.7898 39.3208 13.8178 39.4328 13.8178C39.6488 13.8178 39.8608 13.7698 40.0688 13.6738C40.2768 13.5778 40.4728 13.4618 40.6568 13.3258C40.8488 13.1818 41.0248 13.0298 41.1848 12.8698C41.3528 12.7018 41.5008 12.5498 41.6288 12.4138C41.7088 12.4858 41.7768 12.5538 41.8328 12.6178C41.4728 13.0978 41.0768 13.4978 40.6448 13.8178C40.2208 14.1298 39.8168 14.3298 39.4328 14.4178C38.8808 14.3538 38.4488 14.1538 38.1368 13.8178C37.8328 13.4738 37.6808 13.0618 37.6808 12.5818C37.6808 12.2538 37.7248 11.9218 37.8128 11.5858C37.9088 11.2418 38.0368 10.9138 38.1968 10.6018C38.3648 10.2818 38.5568 9.9818 38.7728 9.7018C38.9968 9.4218 39.2328 9.1778 39.4808 8.9698C39.7368 8.7618 39.9968 8.5978 40.2608 8.4778C40.5328 8.3578 40.8008 8.2978 41.0648 8.2978C41.4328 8.3458 41.7768 8.5738 42.0968 8.9818ZM41.2688 9.3778C41.0528 9.4098 40.8288 9.4978 40.5968 9.6418C40.3648 9.7858 40.1448 9.9778 39.9368 10.2178C39.7368 10.4578 39.5528 10.7378 39.3848 11.0578C39.2168 11.3778 39.0848 11.7218 38.9888 12.0898C39.6288 11.7698 40.1608 11.3778 40.5848 10.9138C41.0088 10.4418 41.2368 9.9298 41.2688 9.3778Z" fill="#F35588"/>
<path d="M22.028 26.768C21.844 26.864 21.648 26.912 21.44 26.912C21.184 26.88 20.936 26.816 20.696 26.72C20.464 26.624 20.292 26.508 20.18 26.372C20.116 25.98 20.064 25.62 20.024 25.292C19.984 24.964 19.952 24.656 19.928 24.368C19.904 24.072 19.888 23.792 19.88 23.528C19.872 23.256 19.868 22.984 19.868 22.712C19.868 22.352 19.872 21.972 19.88 21.572C19.888 21.172 19.896 20.748 19.904 20.3C19.92 19.844 19.932 19.36 19.94 18.848C19.948 18.328 19.952 17.764 19.952 17.156C20.056 17.156 20.212 17.188 20.42 17.252C20.628 17.308 20.832 17.376 21.032 17.456C21.24 17.536 21.424 17.62 21.584 17.708C21.744 17.788 21.832 17.856 21.848 17.912C21.768 18.136 21.696 18.428 21.632 18.788C21.576 19.148 21.528 19.548 21.488 19.988C21.456 20.428 21.432 20.892 21.416 21.38C21.4 21.868 21.392 22.352 21.392 22.832C21.392 23.192 21.396 23.516 21.404 23.804C21.412 24.084 21.42 24.34 21.428 24.572C21.444 24.796 21.464 25.008 21.488 25.208C21.512 25.4 21.54 25.592 21.572 25.784C21.796 25.104 22.04 24.424 22.304 23.744C22.576 23.064 22.852 22.412 23.132 21.788C23.42 21.156 23.704 20.568 23.984 20.024C24.264 19.48 24.528 19.008 24.776 18.608C25.032 18.2 25.26 17.88 25.46 17.648C25.66 17.408 25.824 17.28 25.952 17.264C26.04 17.28 26.132 17.316 26.228 17.372C26.332 17.42 26.428 17.48 26.516 17.552C26.604 17.624 26.684 17.704 26.756 17.792C26.828 17.88 26.884 17.968 26.924 18.056C26.628 18.16 26.308 18.404 25.964 18.788C25.628 19.172 25.288 19.636 24.944 20.18C24.6 20.716 24.264 21.304 23.936 21.944C23.616 22.576 23.324 23.196 23.06 23.804C22.804 24.412 22.584 24.98 22.4 25.508C22.216 26.036 22.092 26.456 22.028 26.768ZM25.3707 25.232C25.3707 24.88 25.4547 24.388 25.6227 23.756C25.7907 23.116 26.0267 22.372 26.3307 21.524C26.8267 20.172 27.2907 19.048 27.7227 18.152C28.1627 17.248 28.5907 16.544 29.0067 16.04C29.1027 16.056 29.2187 16.096 29.3547 16.16C29.4987 16.224 29.6387 16.296 29.7747 16.376C29.9107 16.448 30.0307 16.524 30.1347 16.604C30.2467 16.684 30.3187 16.748 30.3507 16.796C29.7267 17.532 29.1787 18.324 28.7067 19.172C28.2347 20.02 27.8027 20.992 27.4107 22.088C27.0747 23.032 26.8187 23.884 26.6427 24.644C26.4667 25.396 26.3787 26.024 26.3787 26.528C26.3787 26.664 26.3787 26.748 26.3787 26.78C26.3787 26.812 26.3827 26.844 26.3907 26.876C26.2787 26.86 26.1827 26.832 26.1027 26.792C26.0227 26.752 25.9707 26.704 25.9467 26.648C25.9307 26.608 25.8867 26.548 25.8147 26.468C25.7427 26.396 25.6787 26.34 25.6227 26.3C25.5507 26.252 25.4907 26.128 25.4427 25.928C25.3947 25.72 25.3707 25.488 25.3707 25.232ZM29.5878 26.42C29.1318 26.372 28.7678 26.172 28.4958 25.82C28.2238 25.468 28.0878 25.02 28.0878 24.476C28.0878 24.156 28.1358 23.824 28.2318 23.48C28.3278 23.136 28.4638 22.804 28.6398 22.484C28.8158 22.156 29.0238 21.848 29.2638 21.56C29.5038 21.272 29.7638 21.024 30.0438 20.816C30.4838 20.488 30.8958 20.324 31.2798 20.324C31.5358 20.46 31.7878 20.744 32.0358 21.176C32.0758 21.176 32.1118 21.176 32.1438 21.176C32.1758 21.168 32.2118 21.164 32.2518 21.164C32.6758 21.164 32.8878 21.54 32.8878 22.292C32.8878 22.796 32.8038 23.276 32.6358 23.732C32.4758 24.18 32.2478 24.588 31.9518 24.956C31.6638 25.324 31.3158 25.636 30.9078 25.892C30.5078 26.14 30.0678 26.316 29.5878 26.42ZM30.1998 22.64C30.0638 22.824 29.9358 23.024 29.8158 23.24C29.6958 23.456 29.5918 23.676 29.5038 23.9C29.4158 24.116 29.3478 24.328 29.2998 24.536C29.2518 24.736 29.2278 24.916 29.2278 25.076C29.2278 25.268 29.2598 25.452 29.3238 25.628C29.3878 25.804 29.4598 25.904 29.5398 25.928C29.8998 25.848 30.2278 25.7 30.5238 25.484C30.8278 25.26 31.0878 24.984 31.3038 24.656C31.5278 24.328 31.6998 23.956 31.8198 23.54C31.9478 23.124 32.0118 22.68 32.0118 22.208C32.0118 22 31.9998 21.836 31.9758 21.716C31.9518 21.596 31.9118 21.492 31.8558 21.404C31.5038 21.508 31.1878 21.676 30.9078 21.908C30.6358 22.14 30.3998 22.384 30.1998 22.64ZM31.0447 29.576C31.0447 29.528 31.0607 29.484 31.0927 29.444C31.1247 29.404 31.1607 29.364 31.2007 29.324C31.2967 29.412 31.3807 29.48 31.4527 29.528C31.5167 29.576 31.5807 29.616 31.6447 29.648C31.7007 29.68 31.7607 29.7 31.8247 29.708C31.8887 29.716 31.9647 29.72 32.0527 29.72C32.4687 29.72 32.8647 29.608 33.2407 29.384C33.6167 29.168 33.9687 28.852 34.2967 28.436C34.6327 28.02 34.9367 27.512 35.2087 26.912C35.4807 26.312 35.7207 25.632 35.9287 24.872C35.8327 24.968 35.7127 25.076 35.5687 25.196C35.4327 25.308 35.2887 25.416 35.1367 25.52C34.9847 25.624 34.8327 25.72 34.6807 25.808C34.5367 25.896 34.4127 25.96 34.3087 26C34.1727 25.976 34.0447 25.92 33.9247 25.832C33.8127 25.736 33.7127 25.62 33.6247 25.484C33.5367 25.348 33.4687 25.196 33.4207 25.028C33.3727 24.852 33.3487 24.668 33.3487 24.476C33.3487 24.164 33.4047 23.844 33.5167 23.516C33.6367 23.188 33.7927 22.868 33.9847 22.556C34.1767 22.236 34.4007 21.936 34.6567 21.656C34.9207 21.376 35.1967 21.132 35.4847 20.924C35.7807 20.716 36.0767 20.552 36.3727 20.432C36.6767 20.304 36.9727 20.24 37.2607 20.24C37.5407 20.24 37.7487 20.3 37.8847 20.42C38.0287 20.532 38.1327 20.728 38.1967 21.008C38.1087 20.96 37.9967 20.936 37.8607 20.936C37.6687 20.936 37.4447 21.012 37.1887 21.164C36.9407 21.316 36.6847 21.516 36.4207 21.764C36.1647 22.004 35.9087 22.284 35.6527 22.604C35.3967 22.916 35.1687 23.236 34.9687 23.564C34.7767 23.892 34.6167 24.212 34.4887 24.524C34.3687 24.836 34.3087 25.116 34.3087 25.364C34.3087 25.42 34.3127 25.456 34.3207 25.472C34.3287 25.48 34.3407 25.484 34.3567 25.484C34.4287 25.484 34.5247 25.444 34.6447 25.364C34.7727 25.284 34.9127 25.184 35.0647 25.064C35.2247 24.936 35.3887 24.792 35.5567 24.632C35.7247 24.464 35.8847 24.296 36.0367 24.128C36.3807 23.744 36.6927 23.316 36.9727 22.844C37.2607 22.364 37.4887 21.9 37.6567 21.452C37.8727 21.468 38.0647 21.504 38.2327 21.56C38.4007 21.616 38.5167 21.676 38.5807 21.74C38.3087 22.364 38.0887 22.888 37.9207 23.312C37.7607 23.736 37.6207 24.112 37.5007 24.44C37.2847 25.016 37.0807 25.54 36.8887 26.012C36.7047 26.492 36.5127 26.932 36.3127 27.332C36.1207 27.74 35.9087 28.116 35.6767 28.46C35.4527 28.812 35.1967 29.148 34.9087 29.468C34.7727 29.62 34.6167 29.752 34.4407 29.864C34.2727 29.984 34.0967 30.084 33.9127 30.164C33.7367 30.244 33.5607 30.304 33.3847 30.344C33.2167 30.384 33.0607 30.404 32.9167 30.404C32.7247 30.404 32.5287 30.38 32.3287 30.332C32.1287 30.292 31.9447 30.232 31.7767 30.152C31.6007 30.08 31.4487 29.992 31.3207 29.888C31.1927 29.792 31.1007 29.688 31.0447 29.576ZM36.447 29.576C36.447 29.528 36.463 29.484 36.495 29.444C36.527 29.404 36.563 29.364 36.603 29.324C36.699 29.412 36.783 29.48 36.855 29.528C36.919 29.576 36.983 29.616 37.047 29.648C37.103 29.68 37.163 29.7 37.227 29.708C37.291 29.716 37.367 29.72 37.455 29.72C37.871 29.72 38.267 29.608 38.643 29.384C39.019 29.168 39.371 28.852 39.699 28.436C40.035 28.02 40.339 27.512 40.611 26.912C40.883 26.312 41.123 25.632 41.331 24.872C41.235 24.968 41.115 25.076 40.971 25.196C40.835 25.308 40.691 25.416 40.539 25.52C40.387 25.624 40.235 25.72 40.083 25.808C39.939 25.896 39.815 25.96 39.711 26C39.575 25.976 39.447 25.92 39.327 25.832C39.215 25.736 39.115 25.62 39.027 25.484C38.939 25.348 38.871 25.196 38.823 25.028C38.775 24.852 38.751 24.668 38.751 24.476C38.751 24.164 38.807 23.844 38.919 23.516C39.039 23.188 39.195 22.868 39.387 22.556C39.579 22.236 39.803 21.936 40.059 21.656C40.323 21.376 40.599 21.132 40.887 20.924C41.183 20.716 41.479 20.552 41.775 20.432C42.079 20.304 42.375 20.24 42.663 20.24C42.943 20.24 43.151 20.3 43.287 20.42C43.431 20.532 43.535 20.728 43.599 21.008C43.511 20.96 43.399 20.936 43.263 20.936C43.071 20.936 42.847 21.012 42.591 21.164C42.343 21.316 42.087 21.516 41.823 21.764C41.567 22.004 41.311 22.284 41.055 22.604C40.799 22.916 40.571 23.236 40.371 23.564C40.179 23.892 40.019 24.212 39.891 24.524C39.771 24.836 39.711 25.116 39.711 25.364C39.711 25.42 39.715 25.456 39.723 25.472C39.731 25.48 39.743 25.484 39.759 25.484C39.831 25.484 39.927 25.444 40.047 25.364C40.175 25.284 40.315 25.184 40.467 25.064C40.627 24.936 40.791 24.792 40.959 24.632C41.127 24.464 41.287 24.296 41.439 24.128C41.783 23.744 42.095 23.316 42.375 22.844C42.663 22.364 42.891 21.9 43.059 21.452C43.275 21.468 43.467 21.504 43.635 21.56C43.803 21.616 43.919 21.676 43.983 21.74C43.711 22.364 43.491 22.888 43.323 23.312C43.163 23.736 43.023 24.112 42.903 24.44C42.687 25.016 42.483 25.54 42.291 26.012C42.107 26.492 41.915 26.932 41.715 27.332C41.523 27.74 41.311 28.116 41.079 28.46C40.855 28.812 40.599 29.148 40.311 29.468C40.175 29.62 40.019 29.752 39.843 29.864C39.675 29.984 39.499 30.084 39.315 30.164C39.139 30.244 38.963 30.304 38.787 30.344C38.619 30.384 38.463 30.404 38.319 30.404C38.127 30.404 37.931 30.38 37.731 30.332C37.531 30.292 37.347 30.232 37.179 30.152C37.003 30.08 36.851 29.992 36.723 29.888C36.595 29.792 36.503 29.688 36.447 29.576ZM48.5694 21.032C48.5374 21.528 48.4494 21.956 48.3054 22.316C48.1614 22.668 47.9534 22.98 47.6814 23.252C47.4174 23.516 47.0934 23.756 46.7094 23.972C46.3254 24.188 45.8774 24.396 45.3654 24.596C45.3654 24.644 45.3614 24.696 45.3534 24.752C45.3534 24.8 45.3534 24.852 45.3534 24.908C45.3534 25.012 45.3614 25.12 45.3774 25.232C45.3934 25.344 45.4214 25.448 45.4614 25.544C45.5014 25.64 45.5574 25.72 45.6294 25.784C45.7014 25.84 45.7934 25.868 45.9054 25.868C46.1214 25.868 46.3334 25.82 46.5414 25.724C46.7494 25.628 46.9454 25.512 47.1294 25.376C47.3214 25.232 47.4974 25.08 47.6574 24.92C47.8254 24.752 47.9734 24.6 48.1014 24.464C48.1814 24.536 48.2494 24.604 48.3054 24.668C47.9454 25.148 47.5494 25.548 47.1174 25.868C46.6934 26.18 46.2894 26.38 45.9054 26.468C45.3534 26.404 44.9214 26.204 44.6094 25.868C44.3054 25.524 44.1534 25.112 44.1534 24.632C44.1534 24.304 44.1974 23.972 44.2854 23.636C44.3814 23.292 44.5094 22.964 44.6694 22.652C44.8374 22.332 45.0294 22.032 45.2454 21.752C45.4694 21.472 45.7054 21.228 45.9534 21.02C46.2094 20.812 46.4694 20.648 46.7334 20.528C47.0054 20.408 47.2734 20.348 47.5374 20.348C47.9054 20.396 48.2494 20.624 48.5694 21.032ZM47.7414 21.428C47.5254 21.46 47.3014 21.548 47.0694 21.692C46.8374 21.836 46.6174 22.028 46.4094 22.268C46.2094 22.508 46.0254 22.788 45.8574 23.108C45.6894 23.428 45.5574 23.772 45.4614 24.14C46.1014 23.82 46.6334 23.428 47.0574 22.964C47.4814 22.492 47.7094 21.98 47.7414 21.428ZM48.8369 25.76C48.8769 25.528 48.9449 25.224 49.0409 24.848C49.1449 24.464 49.2649 24.06 49.4009 23.636C49.5369 23.204 49.6809 22.772 49.8329 22.34C49.9849 21.908 50.1329 21.52 50.2769 21.176C50.3809 20.928 50.4729 20.736 50.5529 20.6C50.6329 20.456 50.7209 20.336 50.8169 20.24C50.9289 20.256 51.0449 20.284 51.1649 20.324C51.2849 20.364 51.4009 20.412 51.5129 20.468C51.6249 20.524 51.7249 20.584 51.8129 20.648C51.9009 20.704 51.9689 20.76 52.0169 20.816C51.8009 21.072 51.6089 21.364 51.4409 21.692C51.2809 22.02 51.1169 22.44 50.9489 22.952C51.3809 22.568 51.7609 22.2 52.0889 21.848C52.4249 21.496 52.7369 21.104 53.0249 20.672C53.0729 20.632 53.1569 20.612 53.2769 20.612C53.3889 20.612 53.4969 20.632 53.6009 20.672C53.7049 20.704 53.7769 20.752 53.8169 20.816C53.6729 21.2 53.6009 21.58 53.6009 21.956C53.6009 22.308 53.6529 22.572 53.7569 22.748C53.7489 22.796 53.6929 22.888 53.5889 23.024C53.4929 23.16 53.3849 23.288 53.2649 23.408C53.0489 23.296 52.8569 23.144 52.6889 22.952C52.5209 22.752 52.3969 22.536 52.3169 22.304C51.9409 22.568 51.6209 22.828 51.3569 23.084C51.0929 23.332 50.8649 23.612 50.6729 23.924C50.4889 24.228 50.3289 24.58 50.1929 24.98C50.0649 25.38 49.9409 25.856 49.8209 26.408C49.7489 26.4 49.6609 26.372 49.5569 26.324C49.4609 26.284 49.3609 26.232 49.2569 26.168C49.1609 26.104 49.0729 26.036 48.9929 25.964C48.9129 25.892 48.8609 25.824 48.8369 25.76Z" fill="#F35588"/>
</svg>
